<mxfile host="65bd71144e" pages="2">
    <diagram id="C5RBs43oDa-KdzZeNtuy" name="int8h_1">
        <mxGraphModel dx="1113" dy="814" grid="0" gridSize="10" guides="1" tooltips="1" connect="1" arrows="1" fold="1" page="1" pageScale="1" pageWidth="827" pageHeight="1169" math="0" shadow="0">
            <root>
                <mxCell id="WIyWlLk6GJQsqaUBKTNV-0"/>
                <mxCell id="WIyWlLk6GJQsqaUBKTNV-1" parent="WIyWlLk6GJQsqaUBKTNV-0"/>
                <mxCell id="deHI2vd-ihcxM7uzcLVl-19" style="rounded=0;orthogonalLoop=1;jettySize=auto;html=1;exitX=0.5;exitY=1;exitDx=0;exitDy=0;exitPerimeter=0;endArrow=none;endFill=0;" parent="WIyWlLk6GJQsqaUBKTNV-1" source="deHI2vd-ihcxM7uzcLVl-0" target="deHI2vd-ihcxM7uzcLVl-2" edge="1">
                    <mxGeometry relative="1" as="geometry"/>
                </mxCell>
                <mxCell id="deHI2vd-ihcxM7uzcLVl-0" value="&lt;font style=&quot;font-size: 14px&quot;&gt;Начало&lt;/font&gt;" style="strokeWidth=2;html=1;shape=mxgraph.flowchart.terminator;whiteSpace=wrap;" parent="WIyWlLk6GJQsqaUBKTNV-1" vertex="1">
                    <mxGeometry x="350" y="190" width="150" height="50" as="geometry"/>
                </mxCell>
                <mxCell id="deHI2vd-ihcxM7uzcLVl-20" style="edgeStyle=none;rounded=0;orthogonalLoop=1;jettySize=auto;html=1;exitX=0.5;exitY=1;exitDx=0;exitDy=0;entryX=0.5;entryY=0;entryDx=0;entryDy=0;endArrow=none;endFill=0;" parent="WIyWlLk6GJQsqaUBKTNV-1" source="deHI2vd-ihcxM7uzcLVl-2" target="deHI2vd-ihcxM7uzcLVl-3" edge="1">
                    <mxGeometry relative="1" as="geometry"/>
                </mxCell>
                <mxCell id="deHI2vd-ihcxM7uzcLVl-2" value="&lt;font style=&quot;font-size: 14px&quot;&gt;Вызов процедуры sub_7&lt;/font&gt;" style="shape=process;whiteSpace=wrap;html=1;backgroundOutline=1;strokeWidth=2;" parent="WIyWlLk6GJQsqaUBKTNV-1" vertex="1">
                    <mxGeometry x="340" y="260" width="170" height="60" as="geometry"/>
                </mxCell>
                <mxCell id="wyO5HY9DHAfHyrod3QJI-3" style="edgeStyle=orthogonalEdgeStyle;rounded=0;orthogonalLoop=1;jettySize=auto;html=1;exitX=0.5;exitY=1;exitDx=0;exitDy=0;entryX=0.5;entryY=0;entryDx=0;entryDy=0;endArrow=none;endFill=0;" parent="WIyWlLk6GJQsqaUBKTNV-1" source="deHI2vd-ihcxM7uzcLVl-3" target="wyO5HY9DHAfHyrod3QJI-0" edge="1">
                    <mxGeometry relative="1" as="geometry"/>
                </mxCell>
                <mxCell id="deHI2vd-ihcxM7uzcLVl-3" value="&lt;font style=&quot;font-size: 14px&quot;&gt;Сохранение содержимого регистров ES, DS, AX, DX&lt;/font&gt;" style="whiteSpace=wrap;html=1;strokeWidth=2;" parent="WIyWlLk6GJQsqaUBKTNV-1" vertex="1">
                    <mxGeometry x="340" y="350" width="170" height="70" as="geometry"/>
                </mxCell>
                <mxCell id="deHI2vd-ihcxM7uzcLVl-22" style="edgeStyle=none;rounded=0;orthogonalLoop=1;jettySize=auto;html=1;exitX=0.5;exitY=1;exitDx=0;exitDy=0;entryX=0.5;entryY=0;entryDx=0;entryDy=0;endArrow=none;endFill=0;" parent="WIyWlLk6GJQsqaUBKTNV-1" source="deHI2vd-ihcxM7uzcLVl-4" target="deHI2vd-ihcxM7uzcLVl-5" edge="1">
                    <mxGeometry relative="1" as="geometry"/>
                </mxCell>
                <mxCell id="deHI2vd-ihcxM7uzcLVl-4" value="&lt;font style=&quot;font-size: 14px&quot;&gt;Инкремент двух младших байтов счетчика суточного времени по адресу 0040:006C&lt;/font&gt;" style="whiteSpace=wrap;html=1;strokeWidth=2;" parent="WIyWlLk6GJQsqaUBKTNV-1" vertex="1">
                    <mxGeometry x="335" y="650" width="180" height="70" as="geometry"/>
                </mxCell>
                <mxCell id="deHI2vd-ihcxM7uzcLVl-23" style="edgeStyle=orthogonalEdgeStyle;rounded=0;orthogonalLoop=1;jettySize=auto;html=1;exitX=1;exitY=0.5;exitDx=0;exitDy=0;entryX=0.5;entryY=0;entryDx=0;entryDy=0;endArrow=block;endFill=1;" parent="WIyWlLk6GJQsqaUBKTNV-1" source="deHI2vd-ihcxM7uzcLVl-5" target="deHI2vd-ihcxM7uzcLVl-6" edge="1">
                    <mxGeometry relative="1" as="geometry"/>
                </mxCell>
                <mxCell id="deHI2vd-ihcxM7uzcLVl-24" style="edgeStyle=orthogonalEdgeStyle;rounded=0;orthogonalLoop=1;jettySize=auto;html=1;exitX=0;exitY=0.5;exitDx=0;exitDy=0;entryX=0.5;entryY=0;entryDx=0;entryDy=0;endArrow=block;endFill=1;" parent="WIyWlLk6GJQsqaUBKTNV-1" source="deHI2vd-ihcxM7uzcLVl-5" target="deHI2vd-ihcxM7uzcLVl-12" edge="1">
                    <mxGeometry relative="1" as="geometry">
                        <Array as="points">
                            <mxPoint x="250" y="800"/>
                            <mxPoint x="250" y="980"/>
                            <mxPoint x="425" y="980"/>
                        </Array>
                    </mxGeometry>
                </mxCell>
                <mxCell id="deHI2vd-ihcxM7uzcLVl-5" value="&lt;font style=&quot;font-size: 14px&quot;&gt;Два младших байта &lt;br&gt;счетчика СВ == 0&lt;/font&gt;" style="rhombus;whiteSpace=wrap;html=1;strokeWidth=2;" parent="WIyWlLk6GJQsqaUBKTNV-1" vertex="1">
                    <mxGeometry x="325" y="750" width="200" height="100" as="geometry"/>
                </mxCell>
                <mxCell id="deHI2vd-ihcxM7uzcLVl-25" style="edgeStyle=orthogonalEdgeStyle;rounded=0;orthogonalLoop=1;jettySize=auto;html=1;exitX=0.5;exitY=1;exitDx=0;exitDy=0;entryX=0.5;entryY=0;entryDx=0;entryDy=0;endArrow=block;endFill=1;" parent="WIyWlLk6GJQsqaUBKTNV-1" source="deHI2vd-ihcxM7uzcLVl-6" target="deHI2vd-ihcxM7uzcLVl-12" edge="1">
                    <mxGeometry relative="1" as="geometry">
                        <Array as="points">
                            <mxPoint x="600" y="980"/>
                            <mxPoint x="425" y="980"/>
                        </Array>
                    </mxGeometry>
                </mxCell>
                <mxCell id="deHI2vd-ihcxM7uzcLVl-6" value="&lt;font style=&quot;font-size: 14px&quot;&gt;Инкремент двух старших байтов счетчика СВ по адресу 0040:006E&lt;/font&gt;" style="whiteSpace=wrap;html=1;strokeWidth=2;" parent="WIyWlLk6GJQsqaUBKTNV-1" vertex="1">
                    <mxGeometry x="515" y="870" width="170" height="70" as="geometry"/>
                </mxCell>
                <mxCell id="deHI2vd-ihcxM7uzcLVl-12" value="&lt;font style=&quot;font-size: 18px&quot;&gt;&lt;b&gt;А&lt;/b&gt;&lt;/font&gt;" style="ellipse;whiteSpace=wrap;html=1;aspect=fixed;strokeWidth=2;" parent="WIyWlLk6GJQsqaUBKTNV-1" vertex="1">
                    <mxGeometry x="385" y="1010" width="80" height="80" as="geometry"/>
                </mxCell>
                <mxCell id="wyO5HY9DHAfHyrod3QJI-4" style="edgeStyle=orthogonalEdgeStyle;rounded=0;orthogonalLoop=1;jettySize=auto;html=1;exitX=0.5;exitY=1;exitDx=0;exitDy=0;entryX=0.5;entryY=0;entryDx=0;entryDy=0;endArrow=none;endFill=0;" parent="WIyWlLk6GJQsqaUBKTNV-1" source="wyO5HY9DHAfHyrod3QJI-0" target="wyO5HY9DHAfHyrod3QJI-1" edge="1">
                    <mxGeometry relative="1" as="geometry"/>
                </mxCell>
                <mxCell id="wyO5HY9DHAfHyrod3QJI-0" value="&lt;span style=&quot;font-size: 14px&quot;&gt;Загрузка адреса 0040:0000 в DS&lt;br&gt;(через AX)&lt;br&gt;&lt;/span&gt;" style="whiteSpace=wrap;html=1;strokeWidth=2;" parent="WIyWlLk6GJQsqaUBKTNV-1" vertex="1">
                    <mxGeometry x="340" y="436" width="170" height="81" as="geometry"/>
                </mxCell>
                <mxCell id="wyO5HY9DHAfHyrod3QJI-5" style="edgeStyle=orthogonalEdgeStyle;rounded=0;orthogonalLoop=1;jettySize=auto;html=1;exitX=0.5;exitY=1;exitDx=0;exitDy=0;entryX=0.5;entryY=0;entryDx=0;entryDy=0;endArrow=none;endFill=0;" parent="WIyWlLk6GJQsqaUBKTNV-1" source="wyO5HY9DHAfHyrod3QJI-1" target="deHI2vd-ihcxM7uzcLVl-4" edge="1">
                    <mxGeometry relative="1" as="geometry"/>
                </mxCell>
                <mxCell id="wyO5HY9DHAfHyrod3QJI-1" value="&lt;span style=&quot;font-size: 14px&quot;&gt;Загрузка адреса 0000:0000 в ES&amp;nbsp;&lt;br&gt;&lt;/span&gt;&lt;span style=&quot;font-size: 14px&quot;&gt;(через AX)&lt;/span&gt;&lt;span style=&quot;font-size: 14px&quot;&gt;&lt;br&gt;&lt;/span&gt;" style="whiteSpace=wrap;html=1;strokeWidth=2;" parent="WIyWlLk6GJQsqaUBKTNV-1" vertex="1">
                    <mxGeometry x="340" y="541.5" width="170" height="86" as="geometry"/>
                </mxCell>
                <mxCell id="43VVg3QNsWit2pAkL82H-0" value="да" style="text;html=1;align=center;verticalAlign=middle;resizable=0;points=[];autosize=1;" parent="WIyWlLk6GJQsqaUBKTNV-1" vertex="1">
                    <mxGeometry x="551" y="776" width="24" height="18" as="geometry"/>
                </mxCell>
            </root>
        </mxGraphModel>
    </diagram>
    <diagram id="PK8M0IdVsCi0c5DJB458" name="int8h_2">
        <mxGraphModel dx="1113" dy="814" grid="1" gridSize="10" guides="1" tooltips="1" connect="1" arrows="1" fold="1" page="1" pageScale="1" pageWidth="850" pageHeight="1100" math="0" shadow="0">
            <root>
                <mxCell id="nXMFkNRsreDVf7fU-MNM-0"/>
                <mxCell id="nXMFkNRsreDVf7fU-MNM-1" parent="nXMFkNRsreDVf7fU-MNM-0"/>
                <mxCell id="FbVmKhybOeAD3-jQrLCH-0" style="edgeStyle=orthogonalEdgeStyle;rounded=0;orthogonalLoop=1;jettySize=auto;html=1;exitX=1;exitY=0.5;exitDx=0;exitDy=0;entryX=0.5;entryY=0;entryDx=0;entryDy=0;endArrow=block;endFill=1;" edge="1" source="FbVmKhybOeAD3-jQrLCH-2" target="FbVmKhybOeAD3-jQrLCH-5" parent="nXMFkNRsreDVf7fU-MNM-1">
                    <mxGeometry relative="1" as="geometry"/>
                </mxCell>
                <mxCell id="FbVmKhybOeAD3-jQrLCH-1" style="edgeStyle=orthogonalEdgeStyle;rounded=0;orthogonalLoop=1;jettySize=auto;html=1;exitX=0;exitY=0.5;exitDx=0;exitDy=0;endArrow=none;endFill=0;entryX=0.5;entryY=0;entryDx=0;entryDy=0;" edge="1" source="FbVmKhybOeAD3-jQrLCH-2" target="FbVmKhybOeAD3-jQrLCH-15" parent="nXMFkNRsreDVf7fU-MNM-1">
                    <mxGeometry relative="1" as="geometry">
                        <mxPoint x="315" y="770" as="targetPoint"/>
                        <Array as="points">
                            <mxPoint x="85" y="160"/>
                            <mxPoint x="85" y="590"/>
                            <mxPoint x="285" y="590"/>
                            <mxPoint x="285" y="680"/>
                        </Array>
                    </mxGeometry>
                </mxCell>
                <mxCell id="FbVmKhybOeAD3-jQrLCH-2" value="&lt;font style=&quot;font-size: 14px&quot;&gt;Два старших байта &lt;br&gt;счетчика СВ == 24&lt;/font&gt;" style="rhombus;whiteSpace=wrap;html=1;strokeWidth=2;" vertex="1" parent="nXMFkNRsreDVf7fU-MNM-1">
                    <mxGeometry x="190" y="110" width="200" height="100" as="geometry"/>
                </mxCell>
                <mxCell id="FbVmKhybOeAD3-jQrLCH-3" style="edgeStyle=orthogonalEdgeStyle;rounded=0;orthogonalLoop=1;jettySize=auto;html=1;exitX=1;exitY=0.5;exitDx=0;exitDy=0;entryX=0.5;entryY=0;entryDx=0;entryDy=0;endArrow=block;endFill=1;" edge="1" target="FbVmKhybOeAD3-jQrLCH-7" parent="nXMFkNRsreDVf7fU-MNM-1">
                    <mxGeometry relative="1" as="geometry">
                        <mxPoint x="565" y="230" as="sourcePoint"/>
                    </mxGeometry>
                </mxCell>
                <mxCell id="FbVmKhybOeAD3-jQrLCH-4" style="edgeStyle=orthogonalEdgeStyle;rounded=0;orthogonalLoop=1;jettySize=auto;html=1;exitX=0;exitY=0.5;exitDx=0;exitDy=0;endArrow=none;endFill=0;" edge="1" source="FbVmKhybOeAD3-jQrLCH-5" parent="nXMFkNRsreDVf7fU-MNM-1">
                    <mxGeometry relative="1" as="geometry">
                        <mxPoint x="505" y="580" as="targetPoint"/>
                        <Array as="points">
                            <mxPoint x="315" y="230"/>
                            <mxPoint x="315" y="550"/>
                            <mxPoint x="505" y="550"/>
                        </Array>
                    </mxGeometry>
                </mxCell>
                <mxCell id="FbVmKhybOeAD3-jQrLCH-5" value="&lt;span style=&quot;font-size: 14px&quot;&gt;Два младших байта&amp;nbsp;&lt;/span&gt;&lt;br style=&quot;font-size: 14px&quot;&gt;&lt;span style=&quot;font-size: 14px&quot;&gt;счетчика СВ == 176&lt;/span&gt;" style="rhombus;whiteSpace=wrap;html=1;strokeWidth=2;" vertex="1" parent="nXMFkNRsreDVf7fU-MNM-1">
                    <mxGeometry x="385" y="180" width="200" height="100" as="geometry"/>
                </mxCell>
                <mxCell id="FbVmKhybOeAD3-jQrLCH-6" style="edgeStyle=orthogonalEdgeStyle;rounded=0;orthogonalLoop=1;jettySize=auto;html=1;exitX=0.5;exitY=1;exitDx=0;exitDy=0;entryX=0.5;entryY=0;entryDx=0;entryDy=0;endArrow=none;endFill=0;" edge="1" source="FbVmKhybOeAD3-jQrLCH-7" target="FbVmKhybOeAD3-jQrLCH-9" parent="nXMFkNRsreDVf7fU-MNM-1">
                    <mxGeometry relative="1" as="geometry"/>
                </mxCell>
                <mxCell id="FbVmKhybOeAD3-jQrLCH-7" value="&lt;font style=&quot;font-size: 14px&quot;&gt;Обнуление двух старших байтов счетчика суточного времени по адресу 0040:006Е&lt;/font&gt;" style="whiteSpace=wrap;html=1;strokeWidth=2;" vertex="1" parent="nXMFkNRsreDVf7fU-MNM-1">
                    <mxGeometry x="585" y="254" width="180" height="70" as="geometry"/>
                </mxCell>
                <mxCell id="FbVmKhybOeAD3-jQrLCH-8" style="edgeStyle=orthogonalEdgeStyle;rounded=0;orthogonalLoop=1;jettySize=auto;html=1;exitX=0.5;exitY=1;exitDx=0;exitDy=0;endArrow=none;endFill=0;" edge="1" source="FbVmKhybOeAD3-jQrLCH-9" target="FbVmKhybOeAD3-jQrLCH-11" parent="nXMFkNRsreDVf7fU-MNM-1">
                    <mxGeometry relative="1" as="geometry"/>
                </mxCell>
                <mxCell id="FbVmKhybOeAD3-jQrLCH-9" value="&lt;span style=&quot;font-size: 14px&quot;&gt;Обнуление двух младших байтов счетчика суточного времени по адресу 0040:006С&lt;/span&gt;" style="whiteSpace=wrap;html=1;strokeWidth=2;" vertex="1" parent="nXMFkNRsreDVf7fU-MNM-1">
                    <mxGeometry x="585" y="354" width="180" height="70" as="geometry"/>
                </mxCell>
                <mxCell id="FbVmKhybOeAD3-jQrLCH-10" style="edgeStyle=orthogonalEdgeStyle;rounded=0;orthogonalLoop=1;jettySize=auto;html=1;exitX=0.5;exitY=1;exitDx=0;exitDy=0;endArrow=none;endFill=0;entryX=0.5;entryY=0;entryDx=0;entryDy=0;" edge="1" source="FbVmKhybOeAD3-jQrLCH-11" target="FbVmKhybOeAD3-jQrLCH-15" parent="nXMFkNRsreDVf7fU-MNM-1">
                    <mxGeometry relative="1" as="geometry">
                        <mxPoint x="285" y="710" as="targetPoint"/>
                        <Array as="points">
                            <mxPoint x="675" y="550"/>
                            <mxPoint x="505" y="550"/>
                            <mxPoint x="505" y="590"/>
                            <mxPoint x="285" y="590"/>
                            <mxPoint x="285" y="670"/>
                            <mxPoint x="290" y="670"/>
                        </Array>
                    </mxGeometry>
                </mxCell>
                <mxCell id="FbVmKhybOeAD3-jQrLCH-11" value="&lt;font style=&quot;font-size: 14px&quot;&gt;Установка флага прошедших суток по адресу 0040:0070&lt;/font&gt;" style="whiteSpace=wrap;html=1;strokeWidth=2;" vertex="1" parent="nXMFkNRsreDVf7fU-MNM-1">
                    <mxGeometry x="585" y="454" width="180" height="70" as="geometry"/>
                </mxCell>
                <mxCell id="FbVmKhybOeAD3-jQrLCH-12" style="edgeStyle=orthogonalEdgeStyle;rounded=0;orthogonalLoop=1;jettySize=auto;html=1;exitX=0.5;exitY=1;exitDx=0;exitDy=0;entryX=0.5;entryY=0;entryDx=0;entryDy=0;endArrow=none;endFill=0;" edge="1" source="FbVmKhybOeAD3-jQrLCH-13" target="FbVmKhybOeAD3-jQrLCH-2" parent="nXMFkNRsreDVf7fU-MNM-1">
                    <mxGeometry relative="1" as="geometry"/>
                </mxCell>
                <mxCell id="FbVmKhybOeAD3-jQrLCH-13" value="&lt;font style=&quot;font-size: 18px&quot;&gt;&lt;b&gt;А&lt;/b&gt;&lt;/font&gt;" style="ellipse;whiteSpace=wrap;html=1;aspect=fixed;strokeWidth=2;" vertex="1" parent="nXMFkNRsreDVf7fU-MNM-1">
                    <mxGeometry x="250" y="10" width="80" height="80" as="geometry"/>
                </mxCell>
                <mxCell id="FbVmKhybOeAD3-jQrLCH-14" style="edgeStyle=orthogonalEdgeStyle;rounded=0;orthogonalLoop=1;jettySize=auto;html=1;exitX=0.5;exitY=1;exitDx=0;exitDy=0;entryX=0.5;entryY=0;entryDx=0;entryDy=0;endArrow=none;endFill=0;" edge="1" source="FbVmKhybOeAD3-jQrLCH-15" target="FbVmKhybOeAD3-jQrLCH-18" parent="nXMFkNRsreDVf7fU-MNM-1">
                    <mxGeometry relative="1" as="geometry"/>
                </mxCell>
                <mxCell id="FbVmKhybOeAD3-jQrLCH-15" value="&lt;span style=&quot;font-size: 14px&quot;&gt;Декремент счетчика времени до отключения моторчика дисковода по адресу 0040:0040&lt;/span&gt;" style="whiteSpace=wrap;html=1;strokeWidth=2;" vertex="1" parent="nXMFkNRsreDVf7fU-MNM-1">
                    <mxGeometry x="200" y="610" width="180" height="70" as="geometry"/>
                </mxCell>
                <mxCell id="FbVmKhybOeAD3-jQrLCH-16" style="edgeStyle=orthogonalEdgeStyle;rounded=0;orthogonalLoop=1;jettySize=auto;html=1;exitX=1;exitY=0.5;exitDx=0;exitDy=0;entryX=0.5;entryY=0;entryDx=0;entryDy=0;endArrow=block;endFill=1;" edge="1" source="FbVmKhybOeAD3-jQrLCH-18" target="FbVmKhybOeAD3-jQrLCH-20" parent="nXMFkNRsreDVf7fU-MNM-1">
                    <mxGeometry relative="1" as="geometry"/>
                </mxCell>
                <mxCell id="FbVmKhybOeAD3-jQrLCH-17" style="edgeStyle=orthogonalEdgeStyle;rounded=0;orthogonalLoop=1;jettySize=auto;html=1;exitX=0;exitY=0.5;exitDx=0;exitDy=0;endArrow=block;endFill=1;" edge="1" source="FbVmKhybOeAD3-jQrLCH-18" parent="nXMFkNRsreDVf7fU-MNM-1">
                    <mxGeometry relative="1" as="geometry">
                        <mxPoint x="285" y="1000" as="targetPoint"/>
                        <Array as="points">
                            <mxPoint x="105" y="760"/>
                            <mxPoint x="105" y="980"/>
                            <mxPoint x="285" y="980"/>
                        </Array>
                    </mxGeometry>
                </mxCell>
                <mxCell id="FbVmKhybOeAD3-jQrLCH-18" value="&lt;span style=&quot;font-size: 14px&quot;&gt;Значение счетчика &lt;br&gt;по адресу 0040:0040 &lt;br&gt;== 0&lt;/span&gt;" style="rhombus;whiteSpace=wrap;html=1;strokeWidth=2;" vertex="1" parent="nXMFkNRsreDVf7fU-MNM-1">
                    <mxGeometry x="190" y="711" width="200" height="100" as="geometry"/>
                </mxCell>
                <mxCell id="FbVmKhybOeAD3-jQrLCH-19" style="edgeStyle=orthogonalEdgeStyle;rounded=0;orthogonalLoop=1;jettySize=auto;html=1;exitX=0.5;exitY=1;exitDx=0;exitDy=0;entryX=0.5;entryY=0;entryDx=0;entryDy=0;endArrow=none;endFill=0;" edge="1" source="FbVmKhybOeAD3-jQrLCH-20" target="FbVmKhybOeAD3-jQrLCH-22" parent="nXMFkNRsreDVf7fU-MNM-1">
                    <mxGeometry relative="1" as="geometry"/>
                </mxCell>
                <mxCell id="FbVmKhybOeAD3-jQrLCH-20" value="&lt;font style=&quot;font-size: 14px&quot;&gt;Установка флага отключения моторчика дисковода&lt;/font&gt;" style="whiteSpace=wrap;html=1;strokeWidth=2;" vertex="1" parent="nXMFkNRsreDVf7fU-MNM-1">
                    <mxGeometry x="385" y="790" width="180" height="70" as="geometry"/>
                </mxCell>
                <mxCell id="FbVmKhybOeAD3-jQrLCH-21" style="edgeStyle=orthogonalEdgeStyle;rounded=0;orthogonalLoop=1;jettySize=auto;html=1;exitX=0.5;exitY=1;exitDx=0;exitDy=0;endArrow=none;endFill=0;" edge="1" source="FbVmKhybOeAD3-jQrLCH-22" parent="nXMFkNRsreDVf7fU-MNM-1">
                    <mxGeometry relative="1" as="geometry">
                        <mxPoint x="285" y="990" as="targetPoint"/>
                        <Array as="points">
                            <mxPoint x="475" y="980"/>
                            <mxPoint x="285" y="980"/>
                        </Array>
                    </mxGeometry>
                </mxCell>
                <mxCell id="FbVmKhybOeAD3-jQrLCH-22" value="&lt;span style=&quot;font-size: 14px&quot;&gt;Посылка команды (0Ch) в порт 3F2h&lt;/span&gt;" style="whiteSpace=wrap;html=1;strokeWidth=2;" vertex="1" parent="nXMFkNRsreDVf7fU-MNM-1">
                    <mxGeometry x="385" y="890" width="180" height="70" as="geometry"/>
                </mxCell>
                <mxCell id="FbVmKhybOeAD3-jQrLCH-23" value="&lt;font style=&quot;font-size: 18px&quot;&gt;&lt;b&gt;Б&lt;/b&gt;&lt;/font&gt;" style="ellipse;whiteSpace=wrap;html=1;aspect=fixed;strokeWidth=2;" vertex="1" parent="nXMFkNRsreDVf7fU-MNM-1">
                    <mxGeometry x="240" y="1000" width="80" height="80" as="geometry"/>
                </mxCell>
                <mxCell id="FbVmKhybOeAD3-jQrLCH-24" value="да" style="text;html=1;align=center;verticalAlign=middle;resizable=0;points=[];autosize=1;" vertex="1" parent="nXMFkNRsreDVf7fU-MNM-1">
                    <mxGeometry x="425" y="739" width="24" height="18" as="geometry"/>
                </mxCell>
                <mxCell id="FbVmKhybOeAD3-jQrLCH-25" value="да" style="text;html=1;align=center;verticalAlign=middle;resizable=0;points=[];autosize=1;" vertex="1" parent="nXMFkNRsreDVf7fU-MNM-1">
                    <mxGeometry x="623" y="210" width="24" height="18" as="geometry"/>
                </mxCell>
                <mxCell id="FbVmKhybOeAD3-jQrLCH-26" value="да" style="text;html=1;align=center;verticalAlign=middle;resizable=0;points=[];autosize=1;" vertex="1" parent="nXMFkNRsreDVf7fU-MNM-1">
                    <mxGeometry x="425" y="137" width="24" height="18" as="geometry"/>
                </mxCell>
            </root>
        </mxGraphModel>
    </diagram>
    <diagram id="8JQlEP9AvbUszHQYQjRs" name="int8h_3">
        <mxGraphModel dx="1113" dy="-1386" grid="1" gridSize="10" guides="1" tooltips="1" connect="1" arrows="1" fold="1" page="1" pageScale="1" pageWidth="850" pageHeight="1100" math="0" shadow="0">
            <root>
                <mxCell id="lYYgDbvRecKYqyF_Ws7y-0"/>
                <mxCell id="lYYgDbvRecKYqyF_Ws7y-1" parent="lYYgDbvRecKYqyF_Ws7y-0"/>
                <mxCell id="lYYgDbvRecKYqyF_Ws7y-2" style="edgeStyle=orthogonalEdgeStyle;rounded=0;orthogonalLoop=1;jettySize=auto;html=1;exitX=0.5;exitY=1;exitDx=0;exitDy=0;entryX=0.5;entryY=0;entryDx=0;entryDy=0;endArrow=block;endFill=1;" edge="1" parent="lYYgDbvRecKYqyF_Ws7y-1" source="lYYgDbvRecKYqyF_Ws7y-3" target="lYYgDbvRecKYqyF_Ws7y-6">
                    <mxGeometry relative="1" as="geometry"/>
                </mxCell>
                <mxCell id="lYYgDbvRecKYqyF_Ws7y-3" value="&lt;font style=&quot;font-size: 18px&quot;&gt;&lt;b&gt;Б&lt;/b&gt;&lt;/font&gt;" style="ellipse;whiteSpace=wrap;html=1;aspect=fixed;strokeWidth=2;" vertex="1" parent="lYYgDbvRecKYqyF_Ws7y-1">
                    <mxGeometry x="330" y="2350" width="80" height="80" as="geometry"/>
                </mxCell>
                <mxCell id="lYYgDbvRecKYqyF_Ws7y-4" style="edgeStyle=orthogonalEdgeStyle;rounded=0;orthogonalLoop=1;jettySize=auto;html=1;exitX=1;exitY=0.5;exitDx=0;exitDy=0;endArrow=block;endFill=1;" edge="1" parent="lYYgDbvRecKYqyF_Ws7y-1" source="lYYgDbvRecKYqyF_Ws7y-6" target="lYYgDbvRecKYqyF_Ws7y-8">
                    <mxGeometry relative="1" as="geometry"/>
                </mxCell>
                <mxCell id="lYYgDbvRecKYqyF_Ws7y-5" style="edgeStyle=orthogonalEdgeStyle;rounded=0;orthogonalLoop=1;jettySize=auto;html=1;exitX=0;exitY=0.5;exitDx=0;exitDy=0;endArrow=block;endFill=1;" edge="1" parent="lYYgDbvRecKYqyF_Ws7y-1" source="lYYgDbvRecKYqyF_Ws7y-6" target="lYYgDbvRecKYqyF_Ws7y-10">
                    <mxGeometry relative="1" as="geometry"/>
                </mxCell>
                <mxCell id="lYYgDbvRecKYqyF_Ws7y-6" value="&lt;span style=&quot;font-size: 14px&quot;&gt;Установлен ли флаг &lt;br&gt;четности PF в&lt;br&gt;&amp;nbsp;0040:0314&lt;/span&gt;" style="rhombus;whiteSpace=wrap;html=1;strokeWidth=2;" vertex="1" parent="lYYgDbvRecKYqyF_Ws7y-1">
                    <mxGeometry x="270" y="2450" width="205" height="110" as="geometry"/>
                </mxCell>
                <mxCell id="lYYgDbvRecKYqyF_Ws7y-7" style="edgeStyle=orthogonalEdgeStyle;rounded=0;orthogonalLoop=1;jettySize=auto;html=1;exitX=0.5;exitY=1;exitDx=0;exitDy=0;endArrow=block;endFill=1;" edge="1" parent="lYYgDbvRecKYqyF_Ws7y-1" source="lYYgDbvRecKYqyF_Ws7y-8">
                    <mxGeometry relative="1" as="geometry">
                        <mxPoint x="370" y="2730" as="targetPoint"/>
                        <Array as="points">
                            <mxPoint x="565" y="2690"/>
                            <mxPoint x="370" y="2690"/>
                        </Array>
                    </mxGeometry>
                </mxCell>
                <mxCell id="lYYgDbvRecKYqyF_Ws7y-8" value="&lt;font style=&quot;font-size: 14px&quot;&gt;Вызов прерывания 1Ch&lt;/font&gt;" style="shape=process;whiteSpace=wrap;html=1;backgroundOutline=1;strokeWidth=2;" vertex="1" parent="lYYgDbvRecKYqyF_Ws7y-1">
                    <mxGeometry x="475" y="2580" width="180" height="70" as="geometry"/>
                </mxCell>
                <mxCell id="lYYgDbvRecKYqyF_Ws7y-9" style="edgeStyle=orthogonalEdgeStyle;rounded=0;orthogonalLoop=1;jettySize=auto;html=1;exitX=0.5;exitY=1;exitDx=0;exitDy=0;entryX=0.484;entryY=-0.001;entryDx=0;entryDy=0;endArrow=block;endFill=1;entryPerimeter=0;" edge="1" parent="lYYgDbvRecKYqyF_Ws7y-1" source="lYYgDbvRecKYqyF_Ws7y-10" target="lYYgDbvRecKYqyF_Ws7y-12">
                    <mxGeometry relative="1" as="geometry">
                        <Array as="points">
                            <mxPoint x="180" y="2690"/>
                            <mxPoint x="370" y="2690"/>
                            <mxPoint x="370" y="2730"/>
                        </Array>
                    </mxGeometry>
                </mxCell>
                <mxCell id="lYYgDbvRecKYqyF_Ws7y-10" value="&lt;span style=&quot;font-size: 14px&quot;&gt;Косвенный вызов прерывания 1Ch&lt;/span&gt;" style="whiteSpace=wrap;html=1;strokeWidth=2;" vertex="1" parent="lYYgDbvRecKYqyF_Ws7y-1">
                    <mxGeometry x="90" y="2580" width="180" height="70" as="geometry"/>
                </mxCell>
                <mxCell id="lYYgDbvRecKYqyF_Ws7y-11" style="edgeStyle=orthogonalEdgeStyle;rounded=0;orthogonalLoop=1;jettySize=auto;html=1;exitX=0.5;exitY=1;exitDx=0;exitDy=0;entryX=0.5;entryY=0;entryDx=0;entryDy=0;endArrow=none;endFill=0;" edge="1" parent="lYYgDbvRecKYqyF_Ws7y-1" source="lYYgDbvRecKYqyF_Ws7y-12" target="lYYgDbvRecKYqyF_Ws7y-15">
                    <mxGeometry relative="1" as="geometry"/>
                </mxCell>
                <mxCell id="lYYgDbvRecKYqyF_Ws7y-12" value="&lt;font style=&quot;font-size: 14px&quot;&gt;Вызов процедуры sub_7&lt;/font&gt;" style="shape=process;whiteSpace=wrap;html=1;backgroundOutline=1;strokeWidth=2;" vertex="1" parent="lYYgDbvRecKYqyF_Ws7y-1">
                    <mxGeometry x="280" y="2730" width="180" height="70" as="geometry"/>
                </mxCell>
                <mxCell id="lYYgDbvRecKYqyF_Ws7y-13" style="edgeStyle=orthogonalEdgeStyle;rounded=0;orthogonalLoop=1;jettySize=auto;html=1;exitX=0.5;exitY=1;exitDx=0;exitDy=0;entryX=0.5;entryY=0;entryDx=0;entryDy=0;endArrow=none;endFill=0;" edge="1" parent="lYYgDbvRecKYqyF_Ws7y-1" source="lYYgDbvRecKYqyF_Ws7y-15" target="lYYgDbvRecKYqyF_Ws7y-17">
                    <mxGeometry relative="1" as="geometry"/>
                </mxCell>
                <mxCell id="lYYgDbvRecKYqyF_Ws7y-14" style="edgeStyle=orthogonalEdgeStyle;rounded=0;orthogonalLoop=1;jettySize=auto;html=1;exitX=1;exitY=0.5;exitDx=0;exitDy=0;entryX=0;entryY=0.5;entryDx=0;entryDy=0;entryPerimeter=0;endArrow=none;endFill=0;dashed=1;" edge="1" parent="lYYgDbvRecKYqyF_Ws7y-1" source="lYYgDbvRecKYqyF_Ws7y-15" target="lYYgDbvRecKYqyF_Ws7y-19">
                    <mxGeometry relative="1" as="geometry"/>
                </mxCell>
                <mxCell id="lYYgDbvRecKYqyF_Ws7y-15" value="&lt;span style=&quot;font-size: 14px&quot;&gt;Посылка команды (20h) в порт 20h&lt;/span&gt;" style="whiteSpace=wrap;html=1;strokeWidth=2;" vertex="1" parent="lYYgDbvRecKYqyF_Ws7y-1">
                    <mxGeometry x="280" y="2840" width="180" height="70" as="geometry"/>
                </mxCell>
                <mxCell id="lYYgDbvRecKYqyF_Ws7y-16" style="edgeStyle=orthogonalEdgeStyle;rounded=0;orthogonalLoop=1;jettySize=auto;html=1;exitX=0.5;exitY=1;exitDx=0;exitDy=0;entryX=0.454;entryY=-0.029;entryDx=0;entryDy=0;entryPerimeter=0;endArrow=none;endFill=0;" edge="1" parent="lYYgDbvRecKYqyF_Ws7y-1" source="lYYgDbvRecKYqyF_Ws7y-17" target="lYYgDbvRecKYqyF_Ws7y-18">
                    <mxGeometry relative="1" as="geometry"/>
                </mxCell>
                <mxCell id="lYYgDbvRecKYqyF_Ws7y-17" value="&lt;span style=&quot;font-size: 14px&quot;&gt;Восстановление значений регистров ES, DS, AX, DX&lt;/span&gt;" style="whiteSpace=wrap;html=1;strokeWidth=2;" vertex="1" parent="lYYgDbvRecKYqyF_Ws7y-1">
                    <mxGeometry x="280" y="2950" width="180" height="70" as="geometry"/>
                </mxCell>
                <mxCell id="lYYgDbvRecKYqyF_Ws7y-18" value="&lt;span style=&quot;font-size: 14px&quot;&gt;Конец&lt;/span&gt;" style="strokeWidth=2;html=1;shape=mxgraph.flowchart.terminator;whiteSpace=wrap;" vertex="1" parent="lYYgDbvRecKYqyF_Ws7y-1">
                    <mxGeometry x="297.5" y="3050" width="150" height="50" as="geometry"/>
                </mxCell>
                <mxCell id="lYYgDbvRecKYqyF_Ws7y-19" value="" style="strokeWidth=2;html=1;shape=mxgraph.flowchart.annotation_1;align=left;pointerEvents=1;" vertex="1" parent="lYYgDbvRecKYqyF_Ws7y-1">
                    <mxGeometry x="525" y="2840" width="50" height="70" as="geometry"/>
                </mxCell>
                <mxCell id="lYYgDbvRecKYqyF_Ws7y-20" value="Сброс контроллера &lt;br&gt;прерываний" style="text;html=1;align=center;verticalAlign=middle;resizable=0;points=[];autosize=1;" vertex="1" parent="lYYgDbvRecKYqyF_Ws7y-1">
                    <mxGeometry x="537" y="2855" width="120" height="32" as="geometry"/>
                </mxCell>
                <mxCell id="lYYgDbvRecKYqyF_Ws7y-21" value="да" style="text;html=1;align=center;verticalAlign=middle;resizable=0;points=[];autosize=1;" vertex="1" parent="lYYgDbvRecKYqyF_Ws7y-1">
                    <mxGeometry x="513" y="2480" width="24" height="18" as="geometry"/>
                </mxCell>
            </root>
        </mxGraphModel>
    </diagram>
    <diagram id="yinVloLyn2REaArHDQql" name="sub_2">
        <mxGraphModel dx="1113" dy="-1524" grid="0" gridSize="10" guides="1" tooltips="1" connect="1" arrows="1" fold="1" page="1" pageScale="1" pageWidth="827" pageHeight="1169" math="0" shadow="0">
            <root>
                <mxCell id="dQab6JG4eKId4dH5oYdf-0"/>
                <mxCell id="dQab6JG4eKId4dH5oYdf-1" parent="dQab6JG4eKId4dH5oYdf-0"/>
                <mxCell id="jFwJs0m698Z6FhEF0ztB-10" style="edgeStyle=orthogonalEdgeStyle;rounded=0;orthogonalLoop=1;jettySize=auto;html=1;exitX=1;exitY=0.5;exitDx=0;exitDy=0;endArrow=block;endFill=1;" parent="dQab6JG4eKId4dH5oYdf-1" source="jFwJs0m698Z6FhEF0ztB-0" target="jFwJs0m698Z6FhEF0ztB-7" edge="1">
                    <mxGeometry relative="1" as="geometry"/>
                </mxCell>
                <mxCell id="jFwJs0m698Z6FhEF0ztB-11" style="edgeStyle=orthogonalEdgeStyle;rounded=0;orthogonalLoop=1;jettySize=auto;html=1;exitX=0;exitY=0.5;exitDx=0;exitDy=0;endArrow=block;endFill=1;" parent="dQab6JG4eKId4dH5oYdf-1" source="jFwJs0m698Z6FhEF0ztB-0" target="jFwJs0m698Z6FhEF0ztB-6" edge="1">
                    <mxGeometry relative="1" as="geometry"/>
                </mxCell>
                <mxCell id="jFwJs0m698Z6FhEF0ztB-0" value="&lt;span style=&quot;font-size: 14px&quot;&gt;Флаг DF == 0 и старший&lt;br&gt;&amp;nbsp;бит IOPL == 0&amp;nbsp;&lt;/span&gt;" style="rhombus;whiteSpace=wrap;html=1;strokeWidth=2;" parent="dQab6JG4eKId4dH5oYdf-1" vertex="1">
                    <mxGeometry x="280" y="2750" width="205" height="110" as="geometry"/>
                </mxCell>
                <mxCell id="jFwJs0m698Z6FhEF0ztB-15" style="edgeStyle=orthogonalEdgeStyle;rounded=0;orthogonalLoop=1;jettySize=auto;html=1;exitX=0.5;exitY=1;exitDx=0;exitDy=0;entryX=0.5;entryY=0;entryDx=0;entryDy=0;entryPerimeter=0;endArrow=none;endFill=0;" parent="dQab6JG4eKId4dH5oYdf-1" source="jFwJs0m698Z6FhEF0ztB-1" target="jFwJs0m698Z6FhEF0ztB-2" edge="1">
                    <mxGeometry relative="1" as="geometry"/>
                </mxCell>
                <mxCell id="jFwJs0m698Z6FhEF0ztB-1" value="&lt;span style=&quot;font-size: 14px&quot;&gt;Восстановление значений регистров AX, DS&lt;/span&gt;" style="whiteSpace=wrap;html=1;strokeWidth=2;" parent="dQab6JG4eKId4dH5oYdf-1" vertex="1">
                    <mxGeometry x="292.5" y="3097" width="180" height="70" as="geometry"/>
                </mxCell>
                <mxCell id="jFwJs0m698Z6FhEF0ztB-2" value="&lt;span style=&quot;font-size: 14px&quot;&gt;Конец&lt;/span&gt;" style="strokeWidth=2;html=1;shape=mxgraph.flowchart.terminator;whiteSpace=wrap;" parent="dQab6JG4eKId4dH5oYdf-1" vertex="1">
                    <mxGeometry x="307.5" y="3197" width="150" height="50" as="geometry"/>
                </mxCell>
                <mxCell id="jFwJs0m698Z6FhEF0ztB-18" style="edgeStyle=orthogonalEdgeStyle;rounded=0;orthogonalLoop=1;jettySize=auto;html=1;exitX=0.5;exitY=1;exitDx=0;exitDy=0;exitPerimeter=0;entryX=0.5;entryY=0;entryDx=0;entryDy=0;endArrow=none;endFill=0;" parent="dQab6JG4eKId4dH5oYdf-1" source="jFwJs0m698Z6FhEF0ztB-3" target="jFwJs0m698Z6FhEF0ztB-4" edge="1">
                    <mxGeometry relative="1" as="geometry"/>
                </mxCell>
                <mxCell id="jFwJs0m698Z6FhEF0ztB-3" value="&lt;span style=&quot;font-size: 14px&quot;&gt;Начало&lt;/span&gt;" style="strokeWidth=2;html=1;shape=mxgraph.flowchart.terminator;whiteSpace=wrap;" parent="dQab6JG4eKId4dH5oYdf-1" vertex="1">
                    <mxGeometry x="310" y="2380" width="150" height="50" as="geometry"/>
                </mxCell>
                <mxCell id="5NsavCUGQng0NBTZvOma-1" style="edgeStyle=orthogonalEdgeStyle;rounded=0;orthogonalLoop=1;jettySize=auto;html=1;exitX=0.5;exitY=1;exitDx=0;exitDy=0;entryX=0.5;entryY=0;entryDx=0;entryDy=0;endArrow=none;endFill=0;" parent="dQab6JG4eKId4dH5oYdf-1" source="jFwJs0m698Z6FhEF0ztB-4" target="5NsavCUGQng0NBTZvOma-0" edge="1">
                    <mxGeometry relative="1" as="geometry"/>
                </mxCell>
                <mxCell id="jFwJs0m698Z6FhEF0ztB-4" value="&lt;span style=&quot;font-size: 14px&quot;&gt;Сохранение содержимого регистров &lt;br&gt;DS, AX&lt;/span&gt;" style="whiteSpace=wrap;html=1;strokeWidth=2;" parent="dQab6JG4eKId4dH5oYdf-1" vertex="1">
                    <mxGeometry x="295" y="2460" width="180" height="70" as="geometry"/>
                </mxCell>
                <mxCell id="jFwJs0m698Z6FhEF0ztB-17" style="edgeStyle=orthogonalEdgeStyle;rounded=0;orthogonalLoop=1;jettySize=auto;html=1;exitX=0.5;exitY=1;exitDx=0;exitDy=0;endArrow=none;endFill=0;" parent="dQab6JG4eKId4dH5oYdf-1" source="jFwJs0m698Z6FhEF0ztB-5" target="jFwJs0m698Z6FhEF0ztB-0" edge="1">
                    <mxGeometry relative="1" as="geometry"/>
                </mxCell>
                <mxCell id="jFwJs0m698Z6FhEF0ztB-5" value="&lt;span style=&quot;font-size: 14px&quot;&gt;Загрузка содержимого младшего байта регистра EFLAGS в AH&lt;/span&gt;" style="whiteSpace=wrap;html=1;strokeWidth=2;" parent="dQab6JG4eKId4dH5oYdf-1" vertex="1">
                    <mxGeometry x="292.5" y="2650" width="180" height="70" as="geometry"/>
                </mxCell>
                <mxCell id="jFwJs0m698Z6FhEF0ztB-12" style="edgeStyle=orthogonalEdgeStyle;rounded=0;orthogonalLoop=1;jettySize=auto;html=1;exitX=0.5;exitY=1;exitDx=0;exitDy=0;entryX=0.5;entryY=0;entryDx=0;entryDy=0;endArrow=block;endFill=1;" parent="dQab6JG4eKId4dH5oYdf-1" source="jFwJs0m698Z6FhEF0ztB-6" target="jFwJs0m698Z6FhEF0ztB-8" edge="1">
                    <mxGeometry relative="1" as="geometry"/>
                </mxCell>
                <mxCell id="jFwJs0m698Z6FhEF0ztB-6" value="&lt;span style=&quot;font-size: 14px&quot;&gt;Запрет маскируемых прерываний инструкцией CLI&lt;/span&gt;" style="whiteSpace=wrap;html=1;strokeWidth=2;" parent="dQab6JG4eKId4dH5oYdf-1" vertex="1">
                    <mxGeometry x="140" y="2870" width="180" height="70" as="geometry"/>
                </mxCell>
                <mxCell id="jFwJs0m698Z6FhEF0ztB-13" style="edgeStyle=orthogonalEdgeStyle;rounded=0;orthogonalLoop=1;jettySize=auto;html=1;exitX=0.5;exitY=1;exitDx=0;exitDy=0;endArrow=block;endFill=1;entryX=0.5;entryY=0;entryDx=0;entryDy=0;" parent="dQab6JG4eKId4dH5oYdf-1" source="jFwJs0m698Z6FhEF0ztB-7" target="jFwJs0m698Z6FhEF0ztB-8" edge="1">
                    <mxGeometry relative="1" as="geometry">
                        <mxPoint x="380" y="3000" as="targetPoint"/>
                    </mxGeometry>
                </mxCell>
                <mxCell id="jFwJs0m698Z6FhEF0ztB-7" value="&lt;span style=&quot;font-size: 14px&quot;&gt;Сброс флага разрешения прерывания IF в 0040:0314&lt;/span&gt;" style="whiteSpace=wrap;html=1;strokeWidth=2;" parent="dQab6JG4eKId4dH5oYdf-1" vertex="1">
                    <mxGeometry x="460" y="2870" width="180" height="70" as="geometry"/>
                </mxCell>
                <mxCell id="jFwJs0m698Z6FhEF0ztB-14" style="edgeStyle=orthogonalEdgeStyle;rounded=0;orthogonalLoop=1;jettySize=auto;html=1;exitX=0.5;exitY=1;exitDx=0;exitDy=0;entryX=0.5;entryY=0;entryDx=0;entryDy=0;endArrow=none;endFill=0;" parent="dQab6JG4eKId4dH5oYdf-1" source="jFwJs0m698Z6FhEF0ztB-8" target="jFwJs0m698Z6FhEF0ztB-1" edge="1">
                    <mxGeometry relative="1" as="geometry"/>
                </mxCell>
                <mxCell id="jFwJs0m698Z6FhEF0ztB-8" value="&lt;span style=&quot;font-size: 14px&quot;&gt;Загрузка содержимого AH в младший байт регистра EFLAGS&lt;/span&gt;" style="whiteSpace=wrap;html=1;strokeWidth=2;" parent="dQab6JG4eKId4dH5oYdf-1" vertex="1">
                    <mxGeometry x="292.5" y="3000" width="180" height="70" as="geometry"/>
                </mxCell>
                <mxCell id="5NsavCUGQng0NBTZvOma-2" style="edgeStyle=orthogonalEdgeStyle;rounded=0;orthogonalLoop=1;jettySize=auto;html=1;exitX=0.5;exitY=1;exitDx=0;exitDy=0;entryX=0.5;entryY=0;entryDx=0;entryDy=0;endArrow=none;endFill=0;" parent="dQab6JG4eKId4dH5oYdf-1" source="5NsavCUGQng0NBTZvOma-0" target="jFwJs0m698Z6FhEF0ztB-5" edge="1">
                    <mxGeometry relative="1" as="geometry"/>
                </mxCell>
                <mxCell id="5NsavCUGQng0NBTZvOma-0" value="&lt;span style=&quot;font-size: 14px&quot;&gt;Загрузка адреса 0040:0000 в DS&lt;/span&gt;&lt;br style=&quot;font-size: 14px&quot;&gt;&lt;span style=&quot;font-size: 14px&quot;&gt;(через AX)&lt;/span&gt;&lt;span style=&quot;font-size: 14px&quot;&gt;&lt;br&gt;&lt;/span&gt;" style="whiteSpace=wrap;html=1;strokeWidth=2;" parent="dQab6JG4eKId4dH5oYdf-1" vertex="1">
                    <mxGeometry x="292.5" y="2550" width="180" height="70" as="geometry"/>
                </mxCell>
                <mxCell id="aOQEaX7dmV3wxyiXXHma-0" value="да" style="text;html=1;align=center;verticalAlign=middle;resizable=0;points=[];autosize=1;" parent="dQab6JG4eKId4dH5oYdf-1" vertex="1">
                    <mxGeometry x="509" y="2782" width="24" height="18" as="geometry"/>
                </mxCell>
            </root>
        </mxGraphModel>
    </diagram>
</mxfile>